<svg xmlns="http://www.w3.org/2000/svg" width="3734.0" height="528.0" viewBox="0 0 3734.0 528.0">
<title>top.group0 @ 0</title>
<rect width="100%" height="100%" fill="#f8fafc"/>
<style>text { font-family: monospace; font-size: 12px; fill: #172b4d; } .title { font-size: 15px; font-weight: bold; } .detail { fill: #52637a; font-size: 10px; } .missing { fill: #b42318; } .value { fill: #075985; }</style>
<text x="20" y="26" class="title">top.group0 @ 0 (1e-9 s ticks)</text>
<g transform="translate(20 60)">
<polyline data-edge="e0" points="1802.0,77.0 1892.0,77.0" fill="none" stroke="#64748b" stroke-width="1.5"/>
<polyline data-edge="e1" points="1802.0,235.0 1812.0,235.0 1812.0,115.0 1892.0,115.0" fill="none" stroke="#64748b" stroke-width="1.5"/>
<polyline data-edge="e2" points="392.0,393.0 482.0,393.0" fill="none" stroke="#64748b" stroke-width="1.5"/>
<polyline data-edge="e3" points="862.0,393.0 952.0,393.0" fill="none" stroke="#64748b" stroke-width="1.5"/>
<polyline data-edge="e4" points="1332.0,393.0 1422.0,393.0" fill="none" stroke="#64748b" stroke-width="1.5"/>
<polyline data-edge="e5" points="1802.0,393.0 1822.0,393.0 1822.0,153.0 1892.0,153.0" fill="none" stroke="#64748b" stroke-width="1.5"/>
<polyline data-edge="e6" points="2272.0,77.0 2362.0,77.0" fill="none" stroke="#64748b" stroke-width="1.5"/>
<polyline data-edge="e7" points="2742.0,77.0 2832.0,77.0" fill="none" stroke="#64748b" stroke-width="1.5"/>
<polyline data-edge="e8" points="2272.0,311.0 2362.0,311.0" fill="none" stroke="#64748b" stroke-width="1.5"/>
<polyline data-edge="e9" points="2742.0,311.0 2752.0,311.0 2752.0,115.0 2832.0,115.0" fill="none" stroke="#64748b" stroke-width="1.5"/>
<polyline data-edge="e10" points="3212.0,77.0 3302.0,77.0" fill="none" stroke="#64748b" stroke-width="1.5"/>
<g data-node="n0"><title>In port · 8 bits</title><rect x="1422.0" y="170.0" width="380.0" height="108.0" rx="6" fill="#ffffff" stroke="#334155"/>
<text x="1434.0" y="192.0" class="title">a</text><text x="1434.0" y="210.0" class="detail">In port · 8 bits</text>
<g data-pin="n0p0"><title>in</title><circle cx="1422.0" cy="235.0" r="3" fill="#334155"/><text x="1430.0" y="231.0" text-anchor="start">in</text><text x="1430.0" y="246.0" text-anchor="start" class="detail"></text></g>
<g data-pin="n0p1"><title>top.group0.a = 10xz10xz</title><circle cx="1802.0" cy="235.0" r="3" fill="#334155"/><text x="1794.0" y="231.0" text-anchor="end">value</text><text x="1794.0" y="246.0" text-anchor="end" class="value">10xz10xz</text></g>
</g>
<g data-node="n1"><title>In port · 1 bits</title><rect x="1422.0" y="12.0" width="380.0" height="108.0" rx="6" fill="#ffffff" stroke="#334155"/>
<text x="1434.0" y="34.0" class="title">clk</text><text x="1434.0" y="52.0" class="detail">In port · 1 bits</text>
<g data-pin="n1p0"><title>in</title><circle cx="1422.0" cy="77.0" r="3" fill="#334155"/><text x="1430.0" y="73.0" text-anchor="start">in</text><text x="1430.0" y="88.0" text-anchor="start" class="detail"></text></g>
<g data-pin="n1p1"><title>top.group0.clk = 1</title><circle cx="1802.0" cy="77.0" r="3" fill="#334155"/><text x="1794.0" y="73.0" text-anchor="end">value</text><text x="1794.0" y="88.0" text-anchor="end" class="value">1</text></g>
</g>
<g data-node="n2"><title>signal · 8 bits</title><rect x="2362.0" y="12.0" width="380.0" height="108.0" rx="6" fill="#ffffff" stroke="#334155"/>
<text x="2374.0" y="34.0" class="title">middle</text><text x="2374.0" y="52.0" class="detail">signal · 8 bits</text>
<g data-pin="n2p0"><title>in</title><circle cx="2362.0" cy="77.0" r="3" fill="#334155"/><text x="2370.0" y="73.0" text-anchor="start">in</text><text x="2370.0" y="88.0" text-anchor="start" class="detail"></text></g>
<g data-pin="n2p1"><title>top.group0.middle = 10xz10xz</title><circle cx="2742.0" cy="77.0" r="3" fill="#334155"/><text x="2734.0" y="73.0" text-anchor="end">value</text><text x="2734.0" y="88.0" text-anchor="end" class="value">10xz10xz</text></g>
</g>
<g data-node="n3"><title>Out port · 8 bits</title><rect x="3302.0" y="12.0" width="380.0" height="108.0" rx="6" fill="#ffffff" stroke="#334155"/>
<text x="3314.0" y="34.0" class="title">q</text><text x="3314.0" y="52.0" class="detail">Out port · 8 bits</text>
<g data-pin="n3p0"><title>in</title><circle cx="3302.0" cy="77.0" r="3" fill="#334155"/><text x="3310.0" y="73.0" text-anchor="start">in</text><text x="3310.0" y="88.0" text-anchor="start" class="detail"></text></g>
<g data-pin="n3p1"><title>top.group0.q = 10xz10xz</title><circle cx="3682.0" cy="77.0" r="3" fill="#334155"/><text x="3674.0" y="73.0" text-anchor="end">value</text><text x="3674.0" y="88.0" text-anchor="end" class="value">10xz10xz</text></g>
</g>
<g data-node="n4" data-instance="top.group0.u"><title>module · crates/vtr-vdb/tests/rtl/netlist.sv:9:24</title><rect x="1892.0" y="12.0" width="380.0" height="184.0" rx="6" fill="#e0f2fe" stroke="#334155"/>
<text x="1904.0" y="34.0" class="title">u : cell_unit</text><text x="1904.0" y="52.0" class="detail">module · crates/vtr-vdb/tests/rtl/netlist.sv:9:24</text>
<g data-pin="n4p0"><title>top.group0.u.clk = 1</title><circle cx="1892.0" cy="77.0" r="3" fill="#334155"/><text x="1900.0" y="73.0" text-anchor="start">clk</text><text x="1900.0" y="88.0" text-anchor="start" class="value">1</text></g>
<g data-pin="n4p1"><title>top.group0.u.a = 10xz10xz</title><circle cx="1892.0" cy="115.0" r="3" fill="#334155"/><text x="1900.0" y="111.0" text-anchor="start">a</text><text x="1900.0" y="126.0" text-anchor="start" class="value">10xz10xz</text></g>
<g data-pin="n4p2"><title>top.group0.u.b = 10xz10xz</title><circle cx="1892.0" cy="153.0" r="3" fill="#334155"/><text x="1900.0" y="149.0" text-anchor="start">b</text><text x="1900.0" y="164.0" text-anchor="start" class="value">10xz10xz</text></g>
<g data-pin="n4p3"><title>top.group0.u.q = 10xz10xz</title><circle cx="2272.0" cy="77.0" r="3" fill="#334155"/><text x="2264.0" y="73.0" text-anchor="end">q</text><text x="2264.0" y="88.0" text-anchor="end" class="value">10xz10xz</text></g>
<g data-pin="n4p4"><title>top.group0.u.spare = 10xz10xz</title><circle cx="2272.0" cy="115.0" r="3" fill="#334155"/><text x="2264.0" y="111.0" text-anchor="end">spare</text><text x="2264.0" y="126.0" text-anchor="end" class="value">10xz10xz</text></g>
</g>
<g data-node="n5"><title>8 bits · crates/vtr-vdb/tests/rtl/netlist.sv:9:47</title><rect x="1422.0" y="328.0" width="380.0" height="108.0" rx="6" fill="#ffffff" stroke="#334155"/>
<text x="1434.0" y="350.0" class="title">cast 8 bits</text><text x="1434.0" y="368.0" class="detail">8 bits · crates/vtr-vdb/tests/rtl/netlist.sv:9:47</text>
<g data-pin="n5p0"><title>in[0]</title><circle cx="1422.0" cy="393.0" r="3" fill="#334155"/><text x="1430.0" y="389.0" text-anchor="start">in[0]</text><text x="1430.0" y="404.0" text-anchor="start" class="detail"></text></g>
<g data-pin="n5p1"><title>out</title><circle cx="1802.0" cy="393.0" r="3" fill="#334155"/><text x="1794.0" y="389.0" text-anchor="end">out</text><text x="1794.0" y="404.0" text-anchor="end" class="detail"></text></g>
</g>
<g data-node="n6"><title>8 bits · crates/vtr-vdb/tests/rtl/netlist.sv:9:47</title><rect x="952.0" y="328.0" width="380.0" height="108.0" rx="6" fill="#ffffff" stroke="#334155"/>
<text x="964.0" y="350.0" class="title">repeat 8</text><text x="964.0" y="368.0" class="detail">8 bits · crates/vtr-vdb/tests/rtl/netlist.sv:9:47</text>
<g data-pin="n6p0"><title>in[0]</title><circle cx="952.0" cy="393.0" r="3" fill="#334155"/><text x="960.0" y="389.0" text-anchor="start">in[0]</text><text x="960.0" y="404.0" text-anchor="start" class="detail"></text></g>
<g data-pin="n6p1"><title>out</title><circle cx="1332.0" cy="393.0" r="3" fill="#334155"/><text x="1324.0" y="389.0" text-anchor="end">out</text><text x="1324.0" y="404.0" text-anchor="end" class="detail"></text></g>
</g>
<g data-node="n7"><title>1 bits · crates/vtr-vdb/tests/rtl/netlist.sv:9:49</title><rect x="482.0" y="328.0" width="380.0" height="108.0" rx="6" fill="#ffffff" stroke="#334155"/>
<text x="494.0" y="350.0" class="title">concat</text><text x="494.0" y="368.0" class="detail">1 bits · crates/vtr-vdb/tests/rtl/netlist.sv:9:49</text>
<g data-pin="n7p0"><title>part[0]</title><circle cx="482.0" cy="393.0" r="3" fill="#334155"/><text x="490.0" y="389.0" text-anchor="start">part[0]</text><text x="490.0" y="404.0" text-anchor="start" class="detail"></text></g>
<g data-pin="n7p1"><title>out</title><circle cx="862.0" cy="393.0" r="3" fill="#334155"/><text x="854.0" y="389.0" text-anchor="end">out</text><text x="854.0" y="404.0" text-anchor="end" class="detail"></text></g>
</g>
<g data-node="n8"><title>1 bits · crates/vtr-vdb/tests/rtl/netlist.sv:9:50</title><rect x="12.0" y="328.0" width="380.0" height="108.0" rx="6" fill="#ffffff" stroke="#334155"/>
<text x="24.0" y="350.0" class="title">constant 1&apos;b1</text><text x="24.0" y="368.0" class="detail">1 bits · crates/vtr-vdb/tests/rtl/netlist.sv:9:50</text>
<g data-pin="n8p0"><title>out</title><circle cx="392.0" cy="393.0" r="3" fill="#334155"/><text x="384.0" y="389.0" text-anchor="end">out</text><text x="384.0" y="404.0" text-anchor="end" class="detail"></text></g>
</g>
<g data-node="n9"><title>8 bits · crates/vtr-vdb/tests/rtl/netlist.sv:10:16</title><rect x="2832.0" y="12.0" width="380.0" height="146.0" rx="6" fill="#ffffff" stroke="#334155"/>
<text x="2844.0" y="34.0" class="title">Add</text><text x="2844.0" y="52.0" class="detail">8 bits · crates/vtr-vdb/tests/rtl/netlist.sv:10:16</text>
<g data-pin="n9p0"><title>a[0]</title><circle cx="2832.0" cy="77.0" r="3" fill="#334155"/><text x="2840.0" y="73.0" text-anchor="start">a[0]</text><text x="2840.0" y="88.0" text-anchor="start" class="detail"></text></g>
<g data-pin="n9p1"><title>b[1]</title><circle cx="2832.0" cy="115.0" r="3" fill="#334155"/><text x="2840.0" y="111.0" text-anchor="start">b[1]</text><text x="2840.0" y="126.0" text-anchor="start" class="detail"></text></g>
<g data-pin="n9p2"><title>out</title><circle cx="3212.0" cy="77.0" r="3" fill="#334155"/><text x="3204.0" y="73.0" text-anchor="end">out</text><text x="3204.0" y="88.0" text-anchor="end" class="detail"></text></g>
</g>
<g data-node="n10"><title>8 bits · crates/vtr-vdb/tests/rtl/netlist.sv:10:25</title><rect x="2362.0" y="246.0" width="380.0" height="108.0" rx="6" fill="#ffffff" stroke="#334155"/>
<text x="2374.0" y="268.0" class="title">cast 8 bits</text><text x="2374.0" y="286.0" class="detail">8 bits · crates/vtr-vdb/tests/rtl/netlist.sv:10:25</text>
<g data-pin="n10p0"><title>in[0]</title><circle cx="2362.0" cy="311.0" r="3" fill="#334155"/><text x="2370.0" y="307.0" text-anchor="start">in[0]</text><text x="2370.0" y="322.0" text-anchor="start" class="detail"></text></g>
<g data-pin="n10p1"><title>out</title><circle cx="2742.0" cy="311.0" r="3" fill="#334155"/><text x="2734.0" y="307.0" text-anchor="end">out</text><text x="2734.0" y="322.0" text-anchor="end" class="detail"></text></g>
</g>
<g data-node="n11"><title>1 bits · crates/vtr-vdb/tests/rtl/netlist.sv:10:25</title><rect x="1892.0" y="246.0" width="380.0" height="108.0" rx="6" fill="#ffffff" stroke="#334155"/>
<text x="1904.0" y="268.0" class="title">constant 1&apos;b1</text><text x="1904.0" y="286.0" class="detail">1 bits · crates/vtr-vdb/tests/rtl/netlist.sv:10:25</text>
<g data-pin="n11p0"><title>out</title><circle cx="2272.0" cy="311.0" r="3" fill="#334155"/><text x="2264.0" y="307.0" text-anchor="end">out</text><text x="2264.0" y="322.0" text-anchor="end" class="detail"></text></g>
</g>
</g>
</svg>
